<?xml version="1.0" standalone="no"?>
<!DOCTYPE svg PUBLIC "-//W3C//DTD SVG 20010904//EN"
 "http://www.w3.org/TR/2001/REC-SVG-20010904/DTD/svg10.dtd">
<svg version="1.0" xmlns="http://www.w3.org/2000/svg"
 width="1012.000000pt" height="779.000000pt" viewBox="0 0 1012.000000 779.000000"
 preserveAspectRatio="xMidYMid meet">

<g transform="translate(0.000000,779.000000) scale(0.100000,-0.100000)"
fill="#000000" stroke="none">
<path d="M4730 7714 c-19 -2 -80 -9 -135 -15 -818 -88 -1627 -470 -2192 -1036
-315 -316 -598 -725 -764 -1105 -29 -65 -55 -117 -59 -116 -4 2 -36 39 -71 83
-114 143 -530 547 -516 500 22 -68 48 -188 57 -258 12 -98 13 -447 1 -466 -7
-10 -13 -11 -31 -1 -12 6 -24 10 -26 7 -3 -3 6 -49 20 -103 13 -55 34 -148 46
-209 12 -60 27 -135 35 -165 27 -115 27 -114 13 -103 -7 5 -40 20 -73 33 -33
13 -108 45 -167 72 -59 26 -110 48 -112 48 -6 0 107 -204 194 -350 106 -180
237 -343 348 -435 60 -48 73 -67 34 -46 -46 24 -210 64 -401 96 -272 47 -412
86 -663 190 -10 4 -18 5 -18 2 0 -10 76 -199 114 -285 78 -176 218 -381 355
-519 22 -23 41 -45 41 -50 0 -5 -24 -17 -52 -27 -29 -10 -100 -41 -157 -69
l-104 -51 119 -21 c65 -12 163 -36 218 -54 54 -17 100 -30 102 -28 4 4 -36 21
-171 73 l-60 23 48 0 c39 1 68 -9 146 -49 158 -81 164 -75 -95 -88 -126 -7
-247 -16 -269 -21 -185 -40 -211 -38 -253 19 l-21 27 113 -5 c115 -5 301 14
275 28 -8 4 -99 10 -204 14 -104 3 -208 9 -229 13 l-40 6 24 -39 c82 -136 205
-277 335 -384 60 -48 180 -112 282 -149 l74 -28 -84 -94 c-131 -146 -130 -145
-180 -131 -105 30 -200 53 -204 48 -3 -2 33 -33 78 -68 136 -102 184 -155 203
-217 21 -70 32 -156 19 -148 -16 10 -228 11 -227 1 5 -31 87 -370 91 -378 3
-5 -16 -53 -42 -107 l-48 -97 58 -54 c32 -29 65 -58 73 -64 19 -14 -5 -58
-214 -393 -78 -124 -141 -227 -140 -228 2 -3 170 48 396 120 340 108 644 185
656 166 8 -13 -24 -432 -50 -657 -13 -108 -23 -198 -21 -199 1 -2 37 18 81 43
199 114 752 379 1169 559 542 234 1026 394 1440 475 206 41 321 39 433 -6 l73
-29 -98 -17 c-98 -17 -140 -30 -578 -167 -126 -40 -331 -103 -455 -142 -236
-73 -400 -129 -400 -135 0 -16 321 -200 498 -284 592 -285 1215 -413 1835
-380 401 22 693 79 1064 209 326 114 508 206 821 413 333 220 610 472 778 707
20 26 47 48 84 65 30 13 199 93 375 176 176 84 379 178 450 210 72 32 190 85
263 119 128 58 135 61 178 51 110 -25 279 -23 607 7 l67 6 -20 31 c-32 48 -86
157 -100 201 -20 62 -84 184 -145 278 -30 47 -55 88 -55 91 0 3 9 6 19 6 11 0
22 4 25 9 12 19 -145 220 -261 333 -68 66 -222 189 -271 217 -21 12 -23 11 78
61 172 86 232 137 454 380 77 85 144 157 149 158 21 10 -2 24 -95 60 -134 52
-237 84 -411 127 -78 20 -149 38 -157 41 -9 3 4 15 38 34 135 74 264 202 368
367 78 125 110 167 212 281 41 45 73 84 71 85 -49 34 -666 297 -697 297 -7 0
16 33 51 73 118 136 171 225 182 307 7 54 7 55 -12 37 -20 -17 -21 -16 -37 43
l-17 61 26 32 c14 18 48 59 76 92 67 80 144 237 174 357 40 159 48 254 42 458
-7 187 -11 225 -48 472 l-21 137 -87 -88 c-119 -121 -228 -198 -403 -287 -82
-42 -184 -102 -226 -134 -76 -57 -198 -177 -238 -234 l-21 -29 -7 37 -7 37
-27 -19 c-15 -10 -79 -47 -142 -82 -63 -35 -126 -72 -140 -82 -60 -46 -167
-131 -188 -150 -12 -11 -24 -19 -25 -17 -622 888 -1481 1416 -2547 1565 -109
15 -632 28 -720 18z m710 -128 c314 -50 566 -114 815 -208 633 -238 1211 -692
1618 -1270 26 -37 47 -71 47 -76 0 -4 -20 -34 -44 -65 l-44 -57 -53 78 c-148
216 -285 378 -466 552 -87 83 -127 130 -134 152 -6 25 -22 41 -61 65 -45 27
-56 39 -71 82 -14 40 -29 60 -65 86 -84 62 -139 85 -188 78 -40 -5 -47 -3 -82
29 -26 23 -53 37 -81 42 -23 3 -69 20 -102 37 -284 143 -708 269 -1104 329
-181 27 -531 38 -711 21 -896 -84 -1675 -465 -2248 -1100 -269 -297 -471 -614
-626 -976 -28 -66 -56 -133 -64 -149 l-12 -29 -22 35 c-12 19 -30 43 -42 53
-28 25 -26 43 21 158 127 315 297 594 541 888 564 679 1291 1084 2213 1234
183 29 258 33 560 30 217 -2 329 -7 405 -19z m776 -522 c21 -14 31 -15 65 -5
34 10 45 9 83 -7 53 -24 63 -38 34 -47 -35 -11 -54 -32 -68 -76 -13 -39 -14
-39 -25 -18 -11 20 -13 15 -19 -44 -4 -36 -11 -79 -15 -94 -7 -27 -8 -26 -33
27 -14 30 -56 88 -92 129 -36 41 -66 77 -66 82 0 13 74 68 93 69 10 0 29 -7
43 -16z m451 -74 c18 -10 39 -30 48 -44 16 -24 21 -25 73 -20 46 4 63 1 90
-15 52 -33 74 -77 68 -135 -7 -63 -39 -104 -137 -174 l-74 -52 -9 26 c-5 17
-4 35 3 51 17 37 7 39 -19 3 -17 -24 -25 -28 -35 -20 -17 14 -10 34 39 115 20
33 36 64 36 68 0 5 -30 -28 -66 -73 -36 -45 -67 -80 -69 -78 -5 5 13 151 21
172 4 11 3 17 -2 14 -5 -4 -20 -36 -34 -72 -13 -36 -28 -66 -32 -66 -8 0 -48
123 -48 149 0 10 -3 21 -7 25 -5 4 -12 -27 -18 -71 l-10 -78 -55 0 c-48 0 -56
3 -68 25 -8 16 -11 44 -8 81 9 94 40 149 85 149 14 0 44 9 66 19 53 26 121 26
162 1z m-597 -42 c40 -50 109 -175 124 -225 10 -31 -19 -31 -51 -1 l-23 21 0
-56 c0 -31 -4 -57 -9 -57 -11 0 -91 134 -121 203 -12 27 -24 47 -26 44 -3 -2
18 -57 46 -122 54 -127 57 -140 37 -179 l-14 -25 -24 21 c-75 67 -73 66 -39
11 26 -42 30 -56 21 -67 -10 -12 -20 -9 -62 20 -50 34 -120 59 -142 51 -7 -2
2 -11 19 -20 43 -22 107 -89 121 -126 6 -18 9 -31 5 -29 -78 41 -131 60 -179
64 -63 5 -64 7 33 -38 50 -23 124 -85 124 -104 0 -12 -4 -13 -22 -3 -13 7 -70
14 -128 16 l-105 3 75 -20 c91 -25 141 -57 157 -99 10 -29 10 -32 -4 -27 -8 4
-82 9 -164 13 -167 7 -194 16 -222 76 -32 66 -16 131 44 193 37 38 41 46 35
77 -7 39 1 51 59 87 27 17 38 32 46 67 14 54 52 82 154 112 91 27 110 41 145
112 17 32 34 59 39 59 5 0 28 -24 51 -52z m3359 -127 c7 -43 10 -93 6 -111 -8
-38 -65 -97 -103 -106 -15 -4 -44 -15 -64 -26 -21 -10 -38 -16 -38 -12 0 5 52
106 139 266 20 38 39 68 42 68 3 0 11 -36 18 -79z m-100 -8 c-12 -21 -31 -50
-41 -65 -23 -34 -102 -202 -134 -286 -25 -66 -159 -332 -289 -572 -111 -205
-265 -461 -381 -630 -193 -283 -295 -450 -456 -745 -36 -66 -106 -194 -155
-285 -50 -91 -109 -202 -132 -247 -23 -46 -43 -83 -46 -83 -3 0 7 30 21 68 47
122 64 175 64 198 0 12 -14 58 -31 102 l-31 80 80 148 c44 82 97 187 117 234
19 47 47 95 60 107 31 28 97 46 135 38 26 -6 31 -1 86 82 116 178 163 251 244
378 45 72 104 162 130 200 116 172 273 454 485 870 75 149 149 286 163 305 23
32 122 138 130 139 2 1 -7 -16 -19 -36z m-149 -78 c0 -8 -12 -36 -27 -62 -15
-26 -62 -113 -104 -192 l-77 -143 -8 48 c-8 57 9 197 33 255 16 40 37 56 118
91 50 21 65 22 65 3z m-2818 -75 c15 -24 24 -25 45 -5 19 20 35 15 48 -13 11
-24 20 -28 30 -12 9 14 58 13 73 -2 7 -7 12 -20 12 -30 0 -15 3 -16 25 -6 21
9 28 8 45 -7 22 -20 27 -74 8 -93 -9 -9 -9 -12 -1 -12 7 0 15 5 18 10 11 19
30 10 53 -25 l24 -34 -21 -30 -21 -30 37 -3 c31 -2 39 -7 41 -27 7 -44 -6 -67
-48 -86 -28 -13 -37 -22 -30 -29 28 -28 -4 -92 -42 -83 -63 14 -208 72 -205
81 4 12 25 12 134 1 l72 -8 15 38 c9 21 14 41 10 44 -9 9 -161 2 -189 -9 -21
-8 -25 -7 -25 10 0 15 14 22 75 35 42 10 85 25 97 35 21 16 21 20 9 58 l-13
40 -54 -24 c-29 -13 -75 -39 -103 -59 l-50 -36 -15 29 c-8 16 -13 32 -10 34 2
3 9 32 14 64 11 65 3 137 -14 131 -19 -6 -45 -99 -46 -159 0 -32 -3 -58 -8
-58 -4 0 -13 22 -19 50 -7 27 -21 70 -32 95 -17 39 -24 45 -50 45 -26 0 -31
-4 -31 -25 0 -31 27 -101 53 -139 16 -23 17 -30 6 -36 -15 -10 -69 59 -116
146 -25 49 -26 54 -13 93 15 47 35 52 98 26 24 -11 38 -12 40 -5 6 18 33 40
48 40 7 0 19 -9 26 -20z m717 -34 c28 -28 32 -39 26 -64 -5 -26 -1 -33 34 -61
49 -39 65 -86 50 -145 -6 -23 -17 -50 -25 -60 -14 -19 -15 -19 -66 5 -45 21
-66 24 -160 24 -119 0 -125 4 -82 54 29 35 55 51 99 62 27 6 25 7 -15 8 -25 0
-67 -6 -94 -14 -27 -8 -51 -13 -53 -11 -10 9 29 66 64 96 21 17 74 49 118 71
78 38 79 39 35 33 -61 -9 -166 -61 -214 -107 -38 -36 -55 -36 -56 0 0 19 130
99 209 128 62 23 94 19 130 -19z m1867 -13 c-3 -16 -9 -104 -12 -198 l-7 -170
-38 -75 -37 -74 -7 38 c-11 56 1 303 18 361 14 50 40 108 59 133 18 21 31 13
24 -15z m513 -164 c1 -86 1 -87 -32 -115 -54 -48 -131 -93 -237 -140 -55 -24
-104 -44 -110 -44 -21 0 107 180 185 260 45 47 104 114 131 149 l49 64 7 -44
c3 -24 7 -83 7 -130z m-109 132 c0 -32 -149 -136 -167 -117 -4 4 1 23 13 42
16 28 33 40 84 59 36 13 66 23 68 24 1 1 2 -3 2 -8z m-3230 -17 c0 -28 50
-119 91 -163 22 -24 38 -46 34 -49 -3 -3 -12 4 -20 15 -16 23 -133 103 -151
103 -6 0 -18 -18 -27 -40 -11 -28 -21 -40 -36 -40 -52 0 -37 55 36 131 58 61
73 70 73 43z m2698 -75 c-6 -36 -11 -150 -10 -262 l2 -199 -33 -61 -32 -62 -7
45 c-4 25 -14 83 -22 130 -19 99 -21 321 -5 353 12 23 111 129 116 124 1 -2
-3 -32 -9 -68z m-4418 -99 c36 -6 97 -26 136 -45 139 -68 230 -204 324 -483
47 -139 48 -175 7 -206 -41 -30 -167 -27 -265 8 -79 27 -86 22 -19 -17 52 -31
154 -63 230 -72 31 -4 57 -12 57 -17 0 -7 -43 -9 -120 -6 -66 2 -120 2 -120 1
0 -10 82 -36 145 -47 l70 -12 -49 -17 c-67 -23 -160 -22 -215 3 -29 14 -40 16
-32 6 27 -32 114 -60 189 -59 39 0 72 -1 72 -3 0 -11 -100 -44 -136 -44 -59 0
-96 18 -166 83 -82 75 -154 115 -270 149 -173 51 -205 75 -265 207 -47 103
-63 123 -144 176 l-71 47 5 40 c3 22 13 48 23 59 9 10 15 21 12 24 -3 3 -24
-15 -47 -40 -66 -72 -55 -118 43 -174 63 -35 87 -65 146 -178 72 -141 146
-195 310 -228 125 -24 179 -53 252 -130 74 -78 115 -102 193 -111 l56 -7 39
-68 c41 -70 108 -135 147 -145 30 -8 29 -15 -11 -71 -78 -109 -153 -286 -207
-491 -40 -149 -49 -166 -101 -187 -56 -23 -191 -24 -233 -3 -58 30 -70 53 -69
132 0 78 28 159 85 247 l31 49 21 -27 c36 -49 40 -50 33 -10 -7 39 -65 180
-135 330 -27 56 -46 87 -54 83 -80 -36 -186 -76 -202 -76 -34 0 -64 28 -71 68
-3 20 -16 45 -28 54 -18 15 -19 20 -8 39 16 25 14 28 -24 32 -44 5 -54 14 -54
52 0 33 -1 34 -55 40 -30 4 -59 13 -65 20 -7 8 -6 36 5 91 22 115 20 166 -11
226 -23 45 -38 132 -44 251 0 4 -12 7 -27 7 -96 1 -155 119 -100 200 32 49 76
71 192 96 76 17 118 32 160 60 81 51 138 75 219 89 89 17 134 17 216 5z m2125
-20 c-3 -5 -12 -10 -18 -10 -7 0 -6 4 3 10 19 12 23 12 15 0z m2165 -377 c27
-185 16 -216 -28 -77 -64 207 -69 314 -19 439 11 27 13 16 19 -95 3 -69 16
-189 28 -267z m-2609 361 c72 -22 129 -45 129 -53 0 -3 -39 -6 -87 -6 -49 0
-101 -4 -116 -8 l-28 -8 46 -41 c49 -45 48 -68 -5 -68 -67 0 -130 84 -82 109
12 6 22 26 26 51 6 36 9 40 34 40 16 0 53 -7 83 -16z m318 -30 c27 -35 26 -59
-4 -89 -33 -34 -77 -33 -104 1 -27 34 -27 68 1 94 32 29 81 27 107 -6z m2062
-147 c9 -88 9 -126 1 -155 -6 -20 -52 -89 -102 -152 -75 -95 -107 -147 -180
-295 -49 -99 -104 -225 -123 -281 -19 -55 -65 -161 -103 -235 -118 -235 -242
-531 -340 -808 -81 -228 -89 -251 -156 -423 -34 -87 -64 -156 -66 -154 -5 6
53 227 98 371 23 72 57 184 77 250 63 216 104 337 180 525 41 102 75 199 75
215 1 17 -7 104 -17 195 -9 91 -17 221 -18 290 -1 137 10 176 71 247 l27 31
-3 -301 c-2 -166 -2 -322 0 -347 l3 -45 34 70 c18 39 53 115 76 170 24 55 65
147 92 205 85 181 91 205 96 385 5 169 14 212 56 249 l21 19 -1 -54 c0 -30 -6
-108 -13 -174 -7 -66 -12 -121 -10 -123 5 -7 59 109 116 253 33 83 65 162 71
177 6 15 14 24 18 20 4 -4 13 -60 20 -125z m984 91 c-3 -24 -9 -51 -11 -60 -4
-13 -53 -33 -172 -72 -92 -30 -185 -57 -207 -61 -36 -7 -38 -6 -25 8 8 8 49
29 90 47 97 40 257 126 293 156 16 13 31 24 34 24 2 0 2 -19 -2 -42z m-2392
-1 c79 -34 157 -133 157 -201 0 -51 -31 -103 -70 -119 -16 -7 -41 -30 -55 -50
-30 -46 -31 -50 -5 -42 23 7 50 -10 50 -30 0 -22 -48 -72 -75 -79 -16 -4 -40
0 -61 10 l-36 17 -32 -35 c-36 -42 -64 -58 -100 -58 l-26 0 30 53 c33 59 37
100 16 150 -17 41 -78 91 -145 119 -52 21 -62 32 -38 41 11 4 188 -38 287 -67
24 -8 24 -7 5 6 -11 8 -53 32 -92 53 -40 22 -73 43 -73 47 0 19 180 0 255 -28
14 -5 17 -4 10 4 -22 24 -150 63 -227 69 -77 6 -100 15 -81 34 14 14 213 14
256 0 57 -19 58 -5 1 20 -34 16 -77 23 -143 27 -94 5 -94 5 -70 23 56 44 196
63 262 36z m1317 -8 c0 -19 -85 -247 -97 -259 -3 -3 -2 11 1 30 26 178 30 193
53 221 29 34 43 37 43 8z m-2140 -19 c9 -17 3 -24 -47 -58 -32 -22 -78 -49
-103 -62 -25 -12 -55 -31 -66 -42 -20 -18 -23 -18 -38 -3 -38 38 -19 55 116
105 73 26 106 43 113 59 12 26 12 26 25 1z m55 -61 c4 -5 0 -18 -7 -27 -8 -9
-31 -45 -52 -79 -35 -59 -86 -113 -107 -113 -12 0 -99 80 -99 91 0 9 104 59
122 59 5 0 7 -13 3 -29 -3 -16 -2 -32 4 -35 11 -7 111 109 111 130 0 16 16 19
25 3z m155 -33 c47 -51 88 -66 106 -41 7 9 10 24 7 32 -6 16 4 14 65 -8 27
-10 27 -14 -1 -64 -17 -29 -31 -41 -56 -46 -29 -6 -38 -2 -72 28 -64 58 -119
143 -93 143 2 0 22 -20 44 -44z m-587 25 c47 -8 77 -25 65 -37 -4 -3 -37 -10
-75 -14 -37 -5 -93 -16 -123 -25 -77 -22 -83 -25 -78 -30 2 -3 39 2 82 10 83
16 164 19 182 7 6 -4 14 -16 17 -27 6 -18 -6 -24 -114 -59 -66 -21 -119 -40
-117 -41 2 -2 68 5 148 15 164 22 192 17 137 -28 -18 -14 -84 -77 -148 -139
-143 -139 -171 -145 -185 -39 -6 41 -9 46 -32 46 -18 0 -41 16 -75 51 -46 48
-49 54 -45 94 9 74 83 145 136 129 15 -5 15 -4 -1 6 -14 9 -29 8 -67 -6 -27
-10 -52 -15 -56 -11 -13 13 6 55 33 73 43 28 215 42 316 25z m456 -56 c-10
-36 -5 -90 17 -172 6 -21 3 -23 -29 -23 -26 0 -41 7 -56 26 -27 35 -26 58 3
97 13 18 34 52 46 75 26 52 34 51 19 -3z m3092 -23 c-27 -88 -36 -99 -111
-137 -115 -58 -394 -164 -405 -154 -3 4 81 145 114 190 16 21 52 37 178 78 87
28 172 58 188 65 52 24 55 21 36 -42z m-2953 -55 c44 -56 45 -58 27 -77 -12
-13 -31 -20 -54 -20 l-36 0 0 95 c0 64 3 89 9 77 5 -9 29 -43 54 -75z m1697
-114 c-7 -214 -17 -261 -74 -373 l-29 -55 -7 48 c-11 74 1 374 17 434 13 44
78 143 94 143 3 0 3 -89 -1 -197z m-3152 94 c103 -61 163 -168 173 -312 8 -98
-19 -149 -96 -187 -60 -30 -120 -46 -120 -32 0 5 22 19 48 31 95 44 137 98
148 190 l5 48 -21 -51 c-24 -60 -55 -92 -132 -134 l-58 -31 0 74 c0 82 -18
190 -56 337 -13 52 -24 100 -24 107 0 16 74 -6 133 -40z m3611 -79 c45 -159
46 -200 1 -56 -31 101 -53 199 -42 188 2 -3 21 -62 41 -132z m-1929 21 c127
-47 168 -125 111 -211 -21 -32 -72 -69 -99 -72 -12 -1 -39 -11 -59 -21 -33
-16 -44 -17 -90 -6 -63 14 -111 41 -133 75 -39 60 -41 166 -3 166 11 0 53 -28
95 -61 l75 -62 -22 44 c-13 24 -32 56 -43 71 -11 15 -18 31 -14 34 8 9 75 -35
129 -84 l41 -37 -18 34 c-9 19 -37 55 -61 81 -49 53 -51 57 -26 63 36 10 63 6
117 -14z m1862 -125 c8 -82 -13 -125 -86 -176 -99 -70 -285 -188 -289 -184 -2
3 15 42 39 87 30 57 75 117 147 198 57 64 116 137 131 163 l26 47 13 -37 c7
-20 16 -64 19 -98z m-522 109 c-4 -10 -10 -135 -14 -278 l-6 -260 -37 -79 -36
-80 -7 36 c-4 20 -5 146 -3 279 4 264 9 293 62 362 30 39 54 50 41 20z m1302
-50 c-35 -68 -53 -81 -154 -109 -97 -27 -304 -66 -312 -59 -2 3 11 11 30 18
181 72 326 134 384 165 39 21 71 37 73 36 2 -1 -8 -24 -21 -51z m-3223 39 c2
-4 -11 -20 -30 -36 -33 -26 -128 -156 -120 -164 2 -2 26 20 52 49 48 51 142
119 164 119 7 0 0 -14 -14 -31 -29 -35 -49 -71 -61 -109 -7 -25 -7 -25 15 3
36 45 120 107 144 107 22 0 23 -2 15 -52 -14 -93 -31 -139 -64 -174 -30 -31
-37 -34 -92 -34 -40 0 -65 -5 -72 -14 -17 -20 -152 -14 -187 8 -33 22 -48 58
-40 92 9 36 123 152 199 203 60 41 81 48 91 33z m237 -103 c13 -120 60 -183
163 -219 75 -25 111 -25 144 1 l27 20 17 -21 c26 -32 23 -76 -7 -106 -31 -31
-50 -27 -122 27 l-52 39 -6 -29 c-17 -77 -90 -103 -159 -56 l-36 24 -47 -29
c-60 -38 -114 -40 -148 -5 -29 28 -33 70 -7 83 9 5 33 12 52 16 52 10 109 52
127 94 8 19 17 78 20 129 7 105 24 122 34 32z m-5055 -224 c35 -72 54 -148 54
-218 l0 -40 -55 84 c-30 46 -55 81 -55 77 0 -3 16 -39 35 -79 19 -40 32 -75
30 -78 -8 -7 -73 58 -106 106 -37 53 -56 132 -62 258 l-5 100 64 -70 c38 -41
80 -99 100 -140z m7944 149 c0 -16 -133 -153 -162 -167 -18 -9 -77 -31 -131
-51 l-98 -35 48 56 48 57 -50 -29 c-28 -16 -56 -33 -63 -38 -7 -5 -15 -8 -17
-5 -3 3 25 34 62 70 72 69 105 85 247 124 87 23 116 28 116 18z m-695 -163
c-12 -81 -44 -113 -246 -247 -103 -68 -192 -124 -198 -124 -16 0 -14 16 9 58
27 51 39 64 83 91 45 27 43 40 -2 16 -26 -13 -31 -13 -31 -1 0 19 82 80 232
171 71 42 130 81 134 86 14 23 25 -6 19 -50z m665 -103 l0 -47 -47 -6 c-27 -3
-59 -8 -73 -11 -14 -3 -82 -12 -151 -19 -108 -13 -172 -28 -253 -61 -13 -5
-17 -4 -13 3 10 17 211 111 314 148 51 19 116 47 145 62 l53 29 12 -26 c7 -14
12 -46 13 -72z m-7659 -163 c41 -83 44 -94 44 -169 0 -46 -6 -94 -14 -111
l-14 -30 -12 45 c-19 73 -25 79 -19 17 4 -31 19 -108 35 -170 72 -284 130
-532 127 -550 -3 -17 -22 -5 -123 73 -260 202 -342 279 -376 354 -28 62 -24
69 23 36 60 -44 66 -37 15 20 -45 49 -94 136 -84 146 3 3 32 -30 65 -73 33
-43 82 -101 110 -129 51 -52 165 -134 185 -134 6 0 -50 62 -124 138 -74 75
-151 160 -171 187 -49 70 -90 143 -86 154 1 5 39 -13 83 -41 75 -47 195 -108
240 -122 11 -3 -44 58 -121 137 -78 78 -151 161 -163 185 -20 39 -43 202 -28
202 3 0 22 -23 42 -51 20 -28 63 -80 95 -114 33 -35 62 -75 66 -89 7 -31 12
-32 30 -8 17 22 17 83 -1 207 -8 55 -14 107 -14 115 0 8 33 -19 73 -61 54 -56
85 -99 117 -164z m3404 95 c22 -42 11 -67 -33 -80 -33 -9 -102 -14 -102 -7 0
7 105 117 112 117 4 0 15 -14 23 -30z m88 -9 c13 -22 27 -31 57 -36 62 -10
102 -43 125 -101 14 -36 28 -55 47 -63 32 -14 63 -62 72 -109 5 -28 3 -33 -12
-28 -9 3 -66 19 -127 36 -60 17 -118 34 -129 37 -26 7 -10 17 66 43 37 12 70
25 73 30 2 4 -32 5 -78 3 -95 -6 -187 10 -211 36 -16 18 -15 20 28 45 47 28
70 73 59 116 -8 30 10 24 30 -9z m1793 -129 c273 -428 406 -770 468 -1202 24
-164 39 -373 34 -484 -3 -93 -6 -106 -38 -163 -33 -60 -62 -80 -73 -50 -2 6
-2 86 1 177 11 379 -53 791 -173 1116 -48 130 -185 394 -295 569 l-88 140 26
12 c15 7 34 12 42 13 9 0 50 -55 96 -128z m834 47 c0 -4 -11 -26 -24 -50 -36
-65 -74 -196 -96 -330 -29 -181 -61 -235 -164 -274 -68 -26 -92 -15 -31 15 55
27 108 94 124 158 6 21 14 90 19 155 9 104 14 127 44 185 46 93 46 93 2 37
-75 -95 -85 -115 -110 -217 -14 -57 -32 -113 -40 -125 -12 -19 -81 -63 -99
-63 -3 0 -5 23 -5 50 0 30 -4 50 -11 50 -26 0 -70 -37 -88 -73 l-19 -39 -16
31 c-21 39 -20 77 3 127 23 50 65 94 168 172 87 66 161 141 217 219 l38 53 44
-37 c24 -21 44 -40 44 -44z m1520 74 c0 -5 -10 -25 -23 -47 l-22 -38 -145 -3
c-118 -2 -164 -8 -245 -29 -55 -14 -102 -26 -105 -25 -3 0 20 11 50 25 95 43
242 91 320 104 41 6 82 13 90 15 32 6 80 5 80 -2z m-1720 -54 c0 -31 -69 -97
-158 -152 -47 -29 -108 -72 -136 -97 l-50 -45 20 35 c10 19 43 58 72 87 40 40
47 50 27 43 -52 -20 -83 -40 -124 -82 l-43 -43 6 30 c9 37 52 93 94 121 17 12
68 34 112 50 46 16 97 42 118 60 39 34 62 31 62 -7z m944 30 c-12 -21 -86 -83
-128 -110 -98 -62 -218 -130 -222 -126 -7 7 74 70 146 114 36 22 97 61 135 87
76 50 80 52 69 35z m-5526 -108 c17 -48 393 -471 674 -757 l148 -152 -93 -93
c-52 -52 -103 -107 -115 -123 l-22 -28 -52 47 c-29 27 -81 61 -114 77 -78 36
-87 47 -129 149 -40 96 -67 127 -116 135 -28 5 -41 1 -66 -20 -26 -22 -32 -36
-42 -102 -10 -66 -21 -93 -81 -198 -69 -119 -82 -163 -57 -184 10 -8 13 -6 14
10 3 32 14 35 32 9 29 -43 129 -241 122 -241 -16 0 -70 69 -105 133 -20 37
-43 67 -49 67 -39 0 -342 358 -459 540 -62 97 -79 133 -70 146 4 6 63 53 132
106 186 142 460 400 460 432 0 23 -57 -21 -247 -191 -121 -107 -207 -178 -333
-272 -47 -34 -86 -67 -88 -71 -5 -14 47 -110 109 -200 94 -138 376 -483 557
-680 40 -45 52 -73 34 -84 -26 -16 -342 297 -518 514 -87 107 -214 287 -248
352 -28 53 -29 58 -17 96 12 35 32 55 131 131 65 50 183 146 261 214 171 146
320 267 330 267 4 0 12 -13 17 -29z m-1705 -53 c21 -31 62 -79 92 -107 61 -58
59 -65 -6 -19 -92 66 -139 126 -139 180 0 25 2 23 53 -54z m7931 63 c8 -12
-79 -91 -99 -91 -9 0 -48 7 -88 16 -47 11 -93 15 -137 11 l-65 -6 55 25 c30
14 78 32 105 39 56 15 221 20 229 6z m-795 -57 c-44 -46 -294 -202 -305 -191
-3 2 60 45 139 96 79 50 155 100 168 110 37 31 36 25 -2 -15z m-6567 -111 c36
-73 35 -87 -16 -203 -20 -44 -43 -105 -52 -136 -9 -31 -19 -52 -24 -47 -4 4
-22 54 -40 111 l-33 102 17 78 c9 42 28 108 43 146 l26 70 24 -30 c13 -16 38
-57 55 -91z m5912 -82 c19 -83 21 -178 4 -232 -14 -50 -69 -114 -119 -139 -59
-30 -67 -24 -21 16 72 62 84 107 72 274 -5 54 22 150 41 150 4 0 15 -31 23
-69z m1173 26 c16 -17 -36 -60 -124 -104 -150 -74 -209 -144 -348 -410 -33
-64 -46 -78 -113 -124 -104 -71 -226 -196 -289 -296 -29 -46 -50 -83 -47 -83
3 0 42 39 87 86 94 100 215 203 342 292 62 44 106 85 140 130 98 130 278 338
334 385 84 73 123 90 182 82 l49 -7 -64 -49 c-36 -27 -82 -69 -103 -94 -35
-42 -130 -205 -120 -205 3 0 27 37 53 83 60 102 142 185 214 215 l53 22 -65
-59 c-36 -33 -91 -93 -124 -133 -200 -248 -221 -268 -409 -379 -156 -91 -232
-147 -302 -221 -37 -40 -105 -110 -149 -157 -45 -48 -112 -122 -150 -166 -38
-43 -92 -104 -120 -135 -28 -30 -111 -127 -186 -215 -152 -179 -182 -210 -197
-201 -11 7 45 101 229 386 62 96 142 222 178 280 109 176 155 244 431 625 242
335 325 429 408 456 29 9 200 6 210 -4z m-3547 -79 c0 -5 -6 -8 -13 -8 -32 0
-138 -64 -187 -113 -73 -73 -123 -163 -166 -297 -30 -92 -48 -129 -89 -186
-60 -80 -288 -330 -316 -344 -24 -13 -161 -13 -234 1 -75 14 -126 48 -157 107
-33 62 -40 109 -27 201 12 87 79 311 116 390 46 97 136 177 169 150 8 -6 14
-17 14 -23 0 -6 -25 -65 -55 -132 -60 -131 -90 -244 -79 -302 22 -123 110
-186 259 -185 89 0 141 15 202 57 40 27 48 39 51 67 6 83 35 225 61 307 38
116 113 267 167 335 l42 54 121 -36 c67 -20 121 -39 121 -43z m-3484 -45 c-9
-48 -75 -245 -88 -258 -21 -22 23 179 57 258 8 20 20 37 26 37 7 0 9 -13 5
-37z m94 -19 c35 -70 30 -112 -24 -232 -26 -57 -57 -135 -70 -173 -25 -76 -32
-73 -42 15 -9 78 21 245 62 341 19 45 34 87 34 94 0 21 15 4 40 -45z m3586 31
c127 -52 207 -231 208 -465 1 -172 -40 -275 -131 -332 l-33 -20 16 44 c24 63
23 196 -1 288 l-20 75 -6 -95 c-8 -109 -21 -179 -45 -239 l-16 -41 -21 41
c-46 92 -251 225 -391 251 -50 10 -66 17 -66 29 0 31 73 194 117 261 53 82
100 122 173 149 55 21 133 22 200 4 15 -4 4 8 -29 29 -29 19 -56 38 -60 41 -9
10 69 -5 105 -20z m3711 -57 c-48 -46 -118 -123 -155 -173 -73 -97 -98 -113
-216 -130 l-49 -8 34 49 c133 195 277 310 418 334 25 4 48 8 50 9 3 0 -34 -36
-82 -81z m-496 -22 c-38 -47 -103 -133 -144 -193 -76 -109 -99 -135 -150 -167
-29 -18 -29 -18 -22 6 10 39 85 180 120 228 54 73 126 137 195 175 36 19 66
35 68 35 1 0 -29 -38 -67 -84z m468 -87 c-43 -80 -96 -139 -124 -139 -8 0 -15
3 -15 8 0 27 165 230 178 217 2 -2 -16 -41 -39 -86z m301 71 c13 -8 13 -10 -2
-10 -10 0 -55 -35 -101 -78 -85 -81 -101 -89 -216 -107 l-45 -7 25 30 c13 17
42 55 64 85 61 84 85 97 180 97 44 0 87 -5 95 -10z m-5334 -94 c-41 -68 -82
-176 -99 -265 l-13 -63 -29 33 c-34 41 -55 89 -55 127 0 42 46 127 86 157 32
24 136 76 142 70 1 -1 -13 -28 -32 -59z m5474 34 l45 -18 -29 -11 c-22 -9
-266 -61 -285 -61 -15 0 62 67 104 91 55 32 81 32 165 -1z m-7597 -205 c1 -59
-6 -89 -42 -190 -24 -66 -50 -147 -59 -180 -10 -37 -18 -52 -20 -40 -3 11 -17
62 -33 114 -16 51 -29 112 -29 135 0 65 27 152 82 266 l50 105 25 -70 c17 -47
25 -93 26 -140z m4963 101 c18 -41 41 -103 49 -138 14 -62 20 -158 10 -158 -3
0 -35 20 -71 44 -35 25 -74 48 -84 51 -16 5 -20 15 -20 54 0 61 25 156 51 192
11 16 23 29 25 29 3 0 21 -33 40 -74z m-5931 1 l100 -52 60 -97 c33 -53 69
-106 79 -117 11 -12 16 -21 12 -21 -15 0 -212 140 -253 179 -52 51 -129 161
-111 161 7 -1 58 -24 113 -53z m8507 -7 c-35 -32 -73 -37 -157 -21 l-40 7 60
13 c33 7 74 16 90 21 17 4 41 8 55 9 25 0 25 0 -8 -29z m-8277 -89 c33 -32
128 -107 210 -166 83 -59 168 -123 190 -143 49 -42 85 -105 85 -145 0 -28 -3
-26 -40 32 -29 44 -57 72 -101 101 -80 52 -97 50 -35 -3 27 -23 68 -59 90 -80
38 -36 39 -37 6 -14 -19 14 -69 41 -111 61 -42 20 -97 55 -122 77 -66 58 -168
184 -210 260 -56 101 -49 105 38 20z m8124 37 c48 -6 87 -13 89 -14 2 -1 -11
-25 -29 -54 -32 -52 -33 -52 -73 -47 -71 10 -265 81 -254 93 7 7 127 32 157
33 14 1 63 -4 110 -11z m-2086 -35 c-3 -16 -12 -48 -19 -73 l-12 -45 -1 73
c-1 66 1 72 19 72 17 0 19 -4 13 -27z m-5553 -198 c55 -212 87 -323 160 -549
81 -255 80 -291 -5 -121 -41 84 -76 140 -97 158 -146 124 -222 178 -394 280
-115 68 -172 110 -264 197 -67 63 -68 63 107 -52 78 -51 192 -124 253 -163 61
-38 155 -104 208 -146 53 -42 98 -76 100 -74 3 3 -29 149 -58 265 -37 145 -70
312 -70 353 1 62 12 33 60 -148z m7475 121 c87 -26 161 -49 163 -51 12 -12
-115 -155 -137 -155 -9 0 -39 12 -66 26 -49 26 -367 204 -373 209 -2 2 25 8
60 13 103 17 180 8 353 -42z m-7185 -18 c0 -57 -77 -434 -86 -425 -7 6 35 312
52 388 16 73 34 92 34 37z m6957 -110 c123 -62 223 -116 223 -120 0 -4 -19
-17 -42 -29 -62 -32 -129 -22 -243 35 -103 52 -278 175 -283 199 -4 20 49 38
93 32 17 -2 130 -55 252 -117z m-6879 -53 c-4 -96 -6 -104 -55 -207 -29 -60
-55 -108 -58 -108 -4 0 -4 8 0 18 4 9 15 84 26 166 10 83 21 157 23 165 3 9
13 43 22 76 l17 60 15 -35 c10 -25 13 -63 10 -135z m4701 114 c77 -26 159 -85
191 -136 30 -47 51 -134 80 -333 22 -152 37 -421 26 -492 l-7 -47 -35 16 -34
17 0 118 c0 227 -39 441 -100 557 -77 143 -211 233 -380 253 -109 12 -145 31
-83 42 21 4 65 13 98 21 73 18 167 12 244 -16z m-3720 -66 c17 -43 48 -100 69
-128 32 -42 50 -55 111 -79 78 -31 117 -63 168 -138 25 -37 41 -49 74 -58 55
-15 203 -120 189 -134 -9 -8 -600 -128 -613 -123 -9 3 115 91 157 112 7 3 6 7
-3 11 -8 4 -34 25 -59 48 -63 58 -91 120 -103 229 -8 74 -16 101 -40 138 -21
33 -29 58 -29 91 0 133 33 145 79 31z m868 6 l40 -36 5 -99 c5 -91 12 -120 52
-215 7 -15 0 -15 -80 -2 -137 21 -197 67 -173 130 6 16 28 62 49 105 21 42 41
95 45 118 4 22 10 40 15 38 4 -2 25 -19 47 -39z m2363 20 c12 -6 10 -8 -8 -9
-28 0 -59 -15 -89 -43 -49 -44 -37 -47 185 -44 l207 2 66 -32 c114 -57 194
-165 234 -318 26 -102 46 -407 28 -418 -5 -3 -21 0 -38 7 l-29 12 2 140 c3
164 -13 274 -54 360 -37 78 -108 146 -181 174 -61 23 -122 24 -390 4 -78 -6
-82 -5 -107 19 -37 37 -36 94 2 129 15 14 34 28 42 31 19 8 110 -2 130 -14z
m2388 -62 c70 -36 166 -85 214 -108 48 -24 87 -47 87 -50 2 -17 -71 -34 -139
-34 -71 1 -81 4 -190 59 -63 33 -149 71 -190 86 -43 16 -75 34 -75 41 0 8 22
29 50 47 65 44 81 41 243 -41z m-3699 42 c97 -16 219 -78 294 -149 l62 -59
-27 -27 -27 -27 -58 47 c-93 77 -206 127 -335 150 l-67 11 30 33 c34 36 36 36
128 21z m-44 -145 c125 -30 288 -136 272 -177 -3 -8 -27 -19 -54 -26 -189 -46
-435 -129 -485 -163 -30 -21 -60 -22 -142 -5 l-58 12 63 75 c35 42 99 118 141
170 115 143 110 139 160 133 24 -3 70 -11 103 -19z m3461 -36 c68 -35 124 -68
124 -74 0 -6 -24 -37 -53 -69 l-53 -58 -114 45 c-63 25 -123 48 -132 51 -24 8
-22 22 6 83 23 51 57 84 84 84 8 0 70 -28 138 -62z m-5432 14 c7 -15 16 -65
19 -112 5 -92 12 -113 69 -207 35 -58 36 -63 17 -63 -31 0 -110 88 -153 170
-21 41 -45 82 -52 90 -11 13 -6 27 27 88 23 40 45 70 50 66 5 -3 15 -17 23
-32z m-2245 -207 c48 -61 95 -135 85 -135 -13 0 -61 31 -80 52 -20 21 -94 159
-94 174 0 12 41 -30 89 -91z m215 31 c63 -37 381 -406 350 -406 -14 0 -359
182 -391 206 -18 14 -50 51 -72 82 -21 31 -48 66 -60 76 -28 25 -27 53 2 59
66 13 131 6 171 -17z m7254 9 c69 -21 186 -74 179 -81 -6 -7 -293 44 -315 56
-11 5 -11 10 3 23 21 21 66 22 133 2z m-7678 -65 c50 -34 297 -170 382 -210
48 -24 86 -46 83 -50 -7 -11 -153 -34 -220 -35 -86 0 -159 38 -224 116 -50 60
-104 158 -117 213 l-7 30 39 -24 c21 -13 50 -31 64 -40z m1742 -17 l30 -44
-24 -32 c-68 -90 -95 -173 -114 -342 -3 -33 -9 -63 -11 -68 -2 -4 -16 9 -30
30 -14 21 -48 61 -76 90 l-50 52 12 41 c6 22 16 40 20 40 9 0 76 -71 104 -110
15 -21 15 -19 -2 15 -10 22 -37 61 -60 87 -23 25 -41 50 -41 55 0 4 11 26 24
47 l24 40 22 -43 c26 -51 37 -49 15 2 -25 61 -20 81 41 147 63 68 64 68 116
-7z m-1087 33 c57 -17 128 -73 151 -118 12 -23 18 -27 29 -18 29 24 172 -35
237 -98 29 -27 53 -71 99 -181 68 -162 91 -221 83 -221 -2 0 -35 20 -72 45
-56 36 -83 65 -154 162 -107 146 -126 169 -97 118 60 -106 89 -161 89 -172 0
-15 -136 60 -174 95 -15 15 -65 72 -109 127 -44 55 -117 142 -161 194 l-81 94
55 -6 c30 -3 78 -13 105 -21z m4520 -46 c39 -12 147 -56 240 -97 94 -41 233
-102 310 -135 183 -78 652 -310 785 -389 147 -87 321 -218 357 -269 12 -16 10
-16 -30 -2 -27 9 -79 15 -147 15 -92 0 -117 -4 -200 -32 -52 -18 -132 -52
-177 -77 -77 -42 -261 -168 -348 -240 -32 -26 -44 -30 -59 -22 -11 6 -60 8
-120 6 -84 -4 -119 -10 -211 -42 -128 -45 -320 -139 -454 -224 l-94 -59 -56
45 c-176 143 -362 211 -543 198 l-86 -6 -204 134 c-205 135 -302 197 -768 489
-259 162 -530 330 -607 374 -24 14 -43 28 -43 32 0 9 163 45 380 85 498 93
869 92 1164 -1 134 -42 275 -107 642 -294 193 -98 355 -179 359 -179 18 0 -43
53 -125 109 -237 161 -580 335 -823 416 l-99 33 29 16 c35 18 238 78 338 101
230 51 459 57 590 15z m-1747 -6 c215 -35 218 -54 10 -77 -83 -9 -154 -15
-156 -13 -2 3 2 30 9 61 9 40 16 54 26 51 8 -3 58 -13 111 -22z m4119 11 c23
-8 94 -20 158 -27 63 -6 115 -15 115 -19 0 -11 -81 -74 -125 -98 -59 -31 -88
-28 -313 35 -17 5 87 124 108 124 8 0 34 -7 57 -15z m692 -29 c-2 -2 -42 -30
-89 -61 -47 -32 -120 -89 -163 -127 -77 -67 -146 -106 -229 -129 -56 -15 -56
-7 0 24 26 15 41 27 33 27 -7 0 -39 -14 -69 -32 l-56 -32 61 -12 c108 -22 283
-124 283 -165 0 -18 -40 -4 -305 108 -61 26 -63 26 -215 8 -53 -6 -34 2 76 34
39 12 82 30 95 42 13 11 54 39 91 60 37 22 102 71 144 110 82 77 148 112 246
134 63 13 105 18 97 11z m349 -10 c8 -5 -15 -27 -69 -67 -45 -34 -101 -81
-125 -105 -46 -48 -97 -67 -201 -76 -51 -5 -52 -5 -35 17 13 18 77 72 167 141
19 14 19 14 -5 3 -45 -22 -210 -119 -263 -154 -40 -27 -62 -35 -96 -35 -44 0
-44 0 -26 20 20 22 256 192 318 229 20 13 50 27 65 32 32 10 252 7 270 -5z
m-6820 -157 c-59 -65 -74 -77 -76 -60 -4 26 27 94 68 150 l33 45 23 -28 24
-27 -72 -80z m7120 99 c23 -6 42 -13 41 -17 -2 -13 -217 -110 -259 -117 l-45
-6 25 21 c24 21 22 21 -25 -2 -29 -14 -69 -25 -95 -25 -24 -1 -46 -6 -48 -11
-4 -13 -62 -15 -62 -2 0 17 108 110 158 135 87 44 198 53 310 24z m-7028 -72
c11 -33 10 -34 -80 -125 l-90 -91 0 38 c0 21 7 49 16 62 15 21 135 150 140
150 2 0 7 -15 14 -34z m7178 12 c-4 -12 -179 -57 -222 -58 -36 0 -2 20 75 45
82 27 153 33 147 13z m-68 -77 c0 -5 -19 -26 -41 -46 -42 -37 -43 -38 -108
-32 -64 5 -157 30 -175 47 -4 4 32 11 80 15 77 6 213 20 237 24 4 0 7 -3 7 -8z
m-7081 -43 c11 -30 10 -34 -16 -52 -15 -11 -58 -49 -94 -85 -58 -57 -68 -73
-78 -119 -6 -29 -11 -73 -11 -98 0 -28 -4 -43 -10 -39 -16 10 -12 200 4 239
17 42 155 186 178 186 9 0 21 -14 27 -32z m5661 26 c0 -8 -216 -109 -274 -129
-78 -25 -66 -8 25 35 l84 39 -43 1 c-58 0 -51 20 14 42 45 16 194 25 194 12z
m-6878 -79 c78 -41 146 -75 150 -75 4 0 8 -4 8 -9 0 -20 -122 -34 -252 -28
-192 7 -335 51 -433 133 l-30 25 30 -8 c52 -13 197 -5 275 15 41 11 83 20 92
21 10 1 82 -33 160 -74z m572 1 c147 -118 194 -183 245 -334 32 -95 30 -97
-51 -45 -40 25 -84 55 -97 67 -31 28 -212 386 -195 386 3 0 47 -33 98 -74z
m1509 -152 c-82 -25 -139 -53 -175 -87 l-28 -26 -16 28 c-21 35 -73 70 -137
92 -28 10 -53 22 -55 27 -1 5 36 48 84 94 l86 85 155 -96 154 -96 -68 -21z
m5842 180 c33 -9 107 -29 163 -44 l104 -26 -38 -33 c-58 -51 -98 -64 -177 -58
-81 7 -167 44 -244 106 -57 44 -63 57 -35 64 42 11 172 6 227 -9z m-275 -55
c30 -23 75 -51 100 -64 48 -24 233 -85 258 -85 27 0 -6 -26 -70 -55 -52 -24
-70 -27 -125 -22 -41 3 -83 14 -116 31 -39 20 -46 21 -27 6 14 -11 28 -20 33
-20 4 0 7 -5 7 -10 0 -7 -19 -8 -52 -5 -160 19 -226 46 -316 128 -31 29 -75
63 -96 77 -34 21 -37 25 -20 31 45 18 134 9 187 -17 49 -25 67 -36 151 -99
l33 -25 -10 46 c-9 36 -20 53 -54 79 -23 18 -40 35 -36 39 3 3 27 6 52 6 39 0
56 -7 101 -41z m-6451 -129 c-18 -14 -54 -44 -80 -68 l-48 -44 -6 35 c-12 61
26 121 120 189 l40 30 3 -59 c3 -55 2 -59 -29 -83z m-325 80 c56 -60 66 -84
66 -158 -1 -47 -3 -54 -12 -37 -6 11 -37 48 -69 82 -44 45 -59 69 -59 90 0 36
10 73 20 73 4 0 28 -22 54 -50z m-574 -81 c55 -28 100 -55 100 -59 0 -10 -195
-69 -304 -91 -50 -10 -119 -19 -152 -19 -63 0 -194 34 -194 50 0 4 15 12 32
16 18 3 69 22 113 41 150 65 270 112 287 113 9 0 62 -23 118 -51z m-330 6
c-124 -30 -302 -50 -327 -37 -16 10 -15 12 10 21 16 6 97 16 180 22 84 6 154
13 156 15 2 2 20 4 40 3 26 0 9 -7 -59 -24z m6740 -29 c0 -3 -25 -16 -56 -30
-42 -19 -73 -26 -120 -26 -35 0 -64 4 -64 9 0 7 73 30 145 45 28 5 95 7 95 2z
m-4971 -31 c32 -13 52 -31 77 -71 20 -31 44 -56 57 -59 12 -2 65 -12 117 -21
52 -8 96 -17 98 -19 2 -2 -2 -23 -10 -47 -19 -56 -50 -76 -178 -118 l-103 -33
-111 26 c-61 14 -140 31 -176 38 -65 11 -66 13 -84 55 -21 51 -96 123 -162
157 -55 27 -105 39 -121 29 -12 -8 -42 -64 -54 -102 -6 -17 -8 -5 -5 38 6 100
14 105 204 126 86 10 166 19 177 21 58 10 233 -3 274 -20z m5110 1 c-10 -9
-191 -57 -202 -53 -17 5 29 29 88 43 47 12 123 18 114 10z m-4494 -69 c55 -36
215 -129 545 -317 228 -130 398 -239 500 -320 70 -56 69 -66 0 -19 -53 36
-220 122 -226 116 -2 -2 20 -16 48 -32 29 -15 73 -43 98 -60 52 -37 143 -85
162 -85 8 0 29 -10 48 -23 19 -13 89 -52 155 -87 216 -113 425 -234 589 -338
28 -18 58 -32 67 -32 10 0 70 29 134 64 163 90 417 208 850 394 204 88 444
193 535 232 91 40 182 78 203 86 36 13 37 12 37 -10 0 -19 -11 -28 -52 -46
-29 -12 -75 -33 -103 -45 -27 -13 -77 -34 -110 -48 -33 -14 -107 -46 -165 -72
-58 -26 -213 -93 -345 -150 -376 -162 -831 -378 -937 -446 l-46 -30 -134 84
c-244 154 -566 340 -728 422 -104 53 -279 125 -302 125 -10 0 -69 22 -131 49
-62 27 -182 79 -267 116 -434 188 -541 243 -563 292 -5 13 -8 26 -5 29 3 3 47
-20 97 -51 51 -30 118 -66 149 -79 31 -13 127 -54 212 -91 85 -36 193 -81 240
-99 47 -19 136 -59 197 -90 62 -31 118 -56 125 -56 21 0 -284 146 -614 294
-186 83 -303 152 -356 210 -67 72 -51 92 25 30 67 -55 223 -140 378 -206 77
-32 164 -70 194 -84 91 -42 68 -19 -41 41 -368 205 -515 293 -550 332 -11 12
-15 27 -11 41 5 21 7 22 27 7 11 -8 44 -30 71 -48z m-1839 1 c41 -23 71 -45
67 -49 -31 -28 -224 -66 -387 -75 -115 -7 -295 11 -279 27 5 5 70 22 145 39
75 17 183 46 240 64 57 19 111 34 122 35 10 1 52 -18 92 -41z m6694 9 c47 -13
108 -31 135 -38 l50 -14 -135 -6 c-83 -4 -157 -13 -193 -23 l-57 -17 -113 37
c-61 20 -116 40 -120 44 -4 4 21 15 55 25 35 9 68 19 73 21 33 12 228 -6 305
-29z m-600 -14 c157 -31 388 -118 560 -210 198 -106 282 -157 600 -368 184
-121 373 -245 420 -275 234 -148 280 -187 299 -256 6 -21 9 -39 8 -40 -1 -2
-81 55 -177 126 -116 86 -224 156 -320 207 -171 91 -380 215 -540 321 -102 68
-183 117 -395 239 -235 136 -417 202 -607 219 -43 4 -78 8 -78 10 0 2 5 15 12
29 12 26 14 27 78 20 36 -3 99 -13 140 -22z m-5878 -161 c-38 -9 -143 -14
-317 -16 -143 -1 -275 -6 -292 -10 -23 -6 -33 -5 -33 3 0 6 10 11 23 11 42 0
362 69 432 93 l70 25 87 -47 87 -46 -57 -13z m6657 73 c-7 -7 -321 -46 -327
-41 -7 8 44 25 102 35 54 9 233 14 225 6z m-956 -77 c14 -18 41 -70 60 -115
37 -84 116 -218 124 -209 2 2 -4 21 -15 43 -32 62 -42 105 -56 225 -7 62 -13
114 -12 115 1 1 26 -10 56 -26 91 -48 144 -141 230 -399 27 -81 52 -155 55
-164 6 -15 1 -18 -28 -18 -110 0 -205 71 -288 215 -48 84 -59 109 -109 241
-20 54 -43 93 -68 119 l-37 38 32 -17 c18 -9 43 -31 56 -48z m1208 18 c77 -14
177 -51 166 -62 -3 -3 -43 -1 -88 5 -101 14 -266 14 -378 1 -66 -7 -90 -6
-117 5 -19 8 -34 18 -34 23 0 6 37 15 83 21 45 6 93 12 107 14 58 9 190 5 261
-7z m-748 -144 c8 -20 31 -100 51 -177 54 -206 85 -304 113 -358 13 -27 22
-51 19 -54 -10 -10 -95 87 -120 135 -46 91 -125 328 -165 493 -6 26 -14 54
-18 64 -4 12 13 3 49 -24 36 -27 62 -55 71 -79z m-4576 -1 c83 -41 281 -129
722 -321 40 -17 93 -33 117 -35 55 -3 287 -113 434 -203 58 -36 141 -86 185
-112 131 -77 345 -208 375 -230 15 -11 30 -20 33 -20 3 0 40 -20 81 -45 l76
-45 91 51 c139 78 557 277 849 404 80 35 208 91 285 124 324 143 532 231 543
231 26 0 10 -32 -25 -53 -44 -26 -284 -134 -628 -282 -371 -160 -971 -445
-1074 -510 l-40 -25 -44 43 c-25 23 -101 72 -173 111 -157 83 -322 180 -514
300 -154 97 -385 222 -435 237 -39 11 -22 -1 85 -61 94 -53 192 -111 327 -196
54 -34 139 -84 188 -111 349 -195 555 -318 555 -334 0 -18 -18 -17 -46 2 -74
51 -354 214 -400 235 -58 25 -254 135 -529 295 -60 35 -139 77 -175 93 -36 16
-101 49 -145 73 -43 24 -113 59 -155 77 -287 127 -555 250 -609 280 -72 41
-90 60 -91 95 l0 25 28 -26 c15 -14 64 -44 109 -67z m5467 44 c59 -16 216 -91
216 -104 0 -4 -39 1 -87 11 -67 14 -132 19 -273 19 l-185 0 -67 37 c-37 20
-68 40 -68 44 0 22 376 16 464 -7z m-7904 -4 c0 -6 -4 -13 -10 -16 -5 -3 -10
-14 -10 -24 0 -10 -12 -27 -26 -37 -15 -10 -45 -34 -68 -53 -22 -19 -60 -43
-84 -53 -40 -18 -51 -19 -133 -7 -49 6 -89 14 -89 16 0 3 31 36 68 75 74 75
83 79 227 98 88 11 125 11 125 1z m-341 -16 c9 -10 -9 -16 -90 -29 -122 -21
-253 -30 -245 -18 23 37 305 76 335 47z m447 -40 c-59 -24 -86 -44 -139 -103
-29 -32 -61 -53 -111 -72 -30 -11 123 138 163 159 34 18 100 40 126 40 11 0
-6 -10 -39 -24z m2231 -22 c50 -38 148 -87 323 -158 343 -141 622 -270 771
-357 154 -89 305 -171 459 -248 80 -40 164 -86 187 -102 65 -44 354 -218 363
-218 5 0 10 3 12 8 8 18 806 401 1103 528 258 111 415 182 570 258 83 41 152
72 154 70 2 -2 0 -14 -6 -27 -12 -25 -32 -37 -116 -68 -73 -26 -70 -35 4 -10
69 24 138 36 124 22 -5 -5 -104 -48 -220 -95 -193 -77 -559 -231 -730 -304
-38 -17 -104 -38 -145 -47 -93 -21 -214 -81 -311 -153 -41 -30 -155 -95 -255
-144 l-181 -89 -119 76 c-65 43 -173 113 -239 157 -69 45 -221 129 -360 197
-132 65 -271 136 -310 158 -79 45 -210 104 -495 224 -422 177 -507 212 -569
230 -60 17 -97 37 -87 46 2 2 23 -5 47 -16 23 -12 45 -21 47 -21 3 0 -16 22
-42 50 -71 76 -60 95 21 33z m-1947 23 c0 -7 -452 -227 -457 -223 -2 3 22 30
54 61 89 86 259 163 366 165 20 1 37 -1 37 -3z m5607 -42 c-3 -4 -52 -23 -109
-44 -57 -20 -112 -40 -123 -45 -11 -4 -6 2 12 14 51 32 244 98 220 75z m201
-11 c-2 -11 -36 -29 -98 -53 -52 -20 -157 -64 -233 -98 -76 -34 -140 -62 -142
-62 -5 0 -50 -20 -235 -105 -63 -29 -126 -56 -139 -60 -14 -4 -81 -32 -150
-62 -70 -31 -151 -66 -181 -78 -94 -40 -352 -170 -456 -230 -94 -55 -100 -57
-124 -43 -34 20 -263 166 -377 241 -51 33 -93 63 -93 68 0 23 155 -55 361
-183 69 -43 131 -78 138 -78 7 0 60 28 119 62 114 66 380 196 521 255 47 19
149 62 226 93 77 32 205 88 285 125 225 103 347 155 450 191 110 38 133 41
128 17z m1798 -4 c104 -18 161 -39 224 -80 34 -22 61 -42 59 -44 -2 -2 -38 6
-79 17 -54 14 -126 21 -255 26 l-180 7 -67 38 c-38 21 -68 40 -68 42 0 10 309
5 366 -6z m-8470 -11 c-25 -14 -167 -51 -173 -44 -3 3 28 14 68 26 41 12 79
23 84 25 6 2 17 4 25 4 11 0 9 -3 -4 -11z m7702 -45 c11 -27 32 -91 47 -143
44 -153 132 -370 151 -370 3 0 -4 17 -15 38 -10 20 -27 74 -37 119 -15 72 -16
97 -6 204 6 67 13 124 16 126 9 10 76 -50 104 -93 16 -24 48 -99 71 -166 42
-120 90 -233 97 -226 2 2 -4 26 -12 53 -16 53 -44 305 -34 305 3 0 27 -20 53
-45 50 -48 84 -108 136 -240 49 -121 97 -201 161 -265 l58 -58 -79 25 c-95 29
-160 56 -203 84 l-31 21 29 -27 c15 -14 26 -28 24 -30 -7 -8 -187 42 -215 59
-15 10 -48 39 -72 64 -40 43 -35 33 21 -42 l21 -28 -43 23 c-121 66 -206 214
-265 464 -16 66 -20 195 -6 195 5 0 18 -21 29 -47z m-4893 -82 c147 -56 264
-104 475 -196 80 -35 195 -83 255 -108 272 -110 331 -144 366 -206 24 -44 24
-44 84 -41 33 1 78 -17 240 -98 110 -55 236 -126 280 -157 94 -69 152 -108
297 -203 l108 -71 107 51 c60 28 150 67 201 88 84 34 96 42 131 91 44 61 74
86 159 129 64 32 196 70 244 70 30 0 88 -25 88 -38 0 -4 -25 -9 -56 -10 -69
-3 -226 -54 -297 -96 -61 -36 -120 -116 -139 -189 l-12 -48 -143 -69 c-79 -39
-155 -70 -170 -70 -14 0 -54 -5 -88 -12 l-63 -11 -158 139 c-173 152 -240 204
-324 251 -51 29 -342 156 -454 198 -36 14 -52 26 -61 49 -15 36 -57 77 -100
99 -124 62 -837 357 -1025 424 -68 24 -126 46 -129 49 -6 5 30 33 44 34 6 0
69 -22 140 -49z m5754 3 c36 -8 92 -28 125 -45 65 -32 161 -98 153 -105 -2 -2
-34 3 -71 11 -37 9 -119 20 -182 24 l-115 9 -94 62 c-52 35 -95 65 -95 68 0 9
215 -9 279 -24z m164 -185 c38 -11 67 -23 64 -26 -14 -13 -237 33 -237 50 0
13 88 1 173 -24z m-385 -39 c86 -60 120 -99 153 -181 31 -76 76 -159 86 -159
3 0 -2 11 -10 23 -20 31 -71 196 -64 204 11 11 98 -69 176 -161 42 -50 100
-117 130 -148 l54 -58 -65 0 c-196 0 -339 78 -427 234 -35 61 -114 286 -101
286 5 0 36 -18 68 -40z m-1413 9 c20 -12 35 -23 33 -24 -3 -3 -391 -178 -628
-282 -89 -40 -137 -56 -142 -49 -3 6 -9 27 -13 46 l-6 35 208 89 c114 49 269
115 343 147 74 32 143 58 152 58 9 1 33 -9 53 -20z m-1316 -2 c-17 -14 -402
-188 -406 -183 -9 9 117 84 197 117 88 37 228 81 209 66z m3191 -42 c58 -20
135 -77 160 -118 42 -68 -9 -56 -157 39 -50 32 -109 69 -130 82 l-38 23 60 -5
c33 -3 80 -12 105 -21z m-4057 -148 c51 -23 85 -48 115 -82 23 -26 42 -52 42
-56 0 -5 -26 11 -57 35 -32 23 -88 62 -125 85 -38 24 -68 45 -68 47 0 10 26 2
93 -29z m-2614 -8 c144 -27 189 -42 274 -86 90 -47 189 -144 244 -238 42 -73
76 -145 70 -152 -2 -2 -24 4 -48 13 -24 9 -69 23 -100 32 -53 16 -59 22 -131
117 -88 117 -153 175 -273 245 -49 29 -39 17 43 -48 34 -27 80 -69 101 -93 45
-52 123 -161 118 -166 -2 -2 -35 6 -73 18 -49 15 -94 39 -154 84 -47 34 -110
78 -140 97 -119 76 -331 170 -347 154 -4 -3 0 -6 9 -6 26 0 190 -85 288 -150
94 -62 208 -150 209 -161 1 -7 -118 7 -171 22 -53 13 -118 50 -272 151 -65 42
-156 97 -202 120 -46 24 -84 46 -84 49 0 33 461 32 639 -2z m520 -70 c67 -33
107 -64 208 -158 68 -64 135 -134 148 -156 38 -65 62 -245 33 -245 -18 0 -114
46 -121 57 -3 5 -11 41 -17 79 -19 118 -149 339 -225 381 -58 32 -67 28 -13
-6 55 -35 77 -65 130 -178 34 -73 42 -101 46 -165 4 -74 3 -78 -16 -78 -28 0
-49 23 -57 62 -16 74 -89 192 -171 278 -73 76 -83 90 -89 134 l-8 49 34 -6
c19 -4 72 -25 118 -48z m-1179 8 c95 -36 157 -69 273 -145 90 -59 127 -79 227
-120 19 -8 -25 -11 -168 -11 -215 -1 -207 -2 -447 79 -172 58 -240 73 -124 26
96 -38 213 -95 207 -101 -2 -2 -109 14 -237 36 -138 23 -263 39 -305 38 l-71
-1 90 -13 c112 -16 175 -32 340 -89 141 -49 141 -46 0 -67 -72 -10 -98 -9
-258 15 -99 15 -230 30 -293 33 -63 3 -114 9 -114 13 0 4 5 21 11 38 10 30 32
43 94 59 l30 7 -30 6 c-30 5 -29 6 35 46 81 51 282 140 375 165 101 28 274 21
365 -14z m7448 -105 c83 -63 152 -118 152 -123 0 -5 -26 -9 -58 -9 -63 0 -104
22 -164 86 -27 30 -98 143 -98 157 0 13 4 11 168 -111z m-2796 41 c10 -9 18
-26 18 -38 0 -19 -17 -30 -105 -69 -58 -25 -112 -46 -119 -46 -16 0 -76 47
-76 59 0 7 69 41 200 99 36 16 61 14 82 -5z m-3178 -28 c79 -54 104 -77 323
-304 204 -211 295 -322 279 -338 -3 -3 -58 46 -123 110 -111 109 -253 219
-253 196 0 -12 33 -44 108 -107 53 -44 77 -80 93 -136 9 -35 11 -37 -55 59
-21 31 -40 54 -43 51 -4 -4 64 -121 114 -196 l17 -25 -24 21 c-14 11 -63 46
-110 77 -109 72 -123 92 -194 290 -10 26 -42 80 -71 120 -69 92 -131 207 -112
207 8 0 31 -11 51 -25z m2831 -204 c-12 -12 -218 -92 -223 -87 -3 4 113 54
185 80 49 18 49 18 38 7z m-3885 -36 c0 -3 -30 -20 -67 -39 -89 -44 -269 -174
-320 -229 -22 -24 -68 -92 -103 -153 -102 -174 -209 -267 -376 -324 -32 -11
-65 -20 -76 -20 -17 0 -17 1 2 20 42 42 128 202 173 320 36 96 75 169 116 219
20 25 42 52 49 60 10 14 11 14 5 -3 -3 -11 -16 -40 -28 -65 -12 -25 -44 -104
-71 -176 -26 -71 -63 -152 -81 -180 l-33 -50 36 40 c43 48 64 88 109 205 47
124 80 185 126 235 84 91 179 125 374 135 72 4 138 7 148 8 9 1 17 0 17 -3z
m453 -21 c48 -10 84 -21 80 -24 -5 -4 -32 -15 -62 -24 -56 -18 -146 -70 -170
-99 -18 -22 -6 -22 27 1 60 41 230 102 284 102 29 0 171 -48 207 -71 30 -18
32 -22 18 -30 -9 -5 -33 -9 -54 -7 -21 1 -72 -1 -113 -4 l-75 -6 80 12 80 12
-60 19 c-37 12 -89 19 -136 19 -71 0 -82 -3 -184 -52 -118 -58 -223 -127 -247
-164 -29 -44 -128 -138 -167 -157 -48 -25 -141 -61 -141 -55 0 3 7 18 15 35 9
16 27 73 41 127 14 53 36 113 49 133 28 43 113 102 204 140 82 35 58 37 -46 4
-80 -25 -175 -81 -192 -113 -5 -10 -21 -61 -36 -113 -42 -150 -102 -230 -202
-270 -29 -12 -162 -49 -176 -49 -5 0 6 17 23 38 20 24 42 72 62 137 53 171 92
216 313 360 132 86 168 103 235 116 66 12 242 3 343 -17z m-1423 -38 c92 -15
140 -26 154 -34 4 -2 -27 -21 -70 -40 l-79 -36 -135 2 c-130 2 -328 -11 -400
-27 -19 -4 44 -5 141 -3 97 3 207 1 245 -3 l69 -8 -51 -23 c-37 -18 -89 -28
-195 -39 -79 -9 -211 -27 -293 -41 -82 -13 -151 -22 -154 -20 -8 9 55 99 100
143 56 54 157 108 249 133 63 17 94 20 204 15 72 -3 168 -11 215 -19z m3210
-54 c18 -31 52 -85 75 -119 34 -49 40 -63 28 -67 -39 -15 -52 -6 -86 68 -29
59 -67 165 -67 183 0 14 23 -15 50 -65z m124 -42 c32 -49 63 -90 69 -90 18 -1
-25 -30 -44 -30 -10 0 -26 22 -44 63 -34 75 -57 147 -47 147 5 0 34 -40 66
-90z m-195 -11 c28 -48 63 -101 78 -119 26 -31 26 -33 8 -46 -15 -11 -21 -11
-33 -1 -20 16 -98 182 -107 227 -9 44 -7 42 54 -61z m-2779 56 c-55 -40 -111
-116 -175 -237 -90 -168 -147 -251 -206 -298 -52 -41 -138 -90 -159 -90 -5 0
3 22 20 48 16 26 49 96 73 154 24 59 60 128 79 155 53 74 54 83 3 28 -25 -27
-83 -111 -127 -185 -91 -152 -126 -199 -177 -237 l-34 -27 33 50 c19 27 76
132 126 234 51 102 108 204 128 227 53 61 289 182 382 196 66 10 69 8 34 -18z
m2759 -185 c51 -67 54 -80 20 -80 -24 0 -67 65 -109 166 -41 98 -38 124 5 44
19 -36 57 -94 84 -130z m342 98 c23 -33 23 -34 3 -42 -11 -4 -22 8 -39 47 -32
67 -34 107 -4 57 12 -19 30 -47 40 -62z m2222 73 c30 -11 121 -53 202 -94 165
-85 162 -78 50 -129 -41 -18 -68 -22 -150 -22 -160 -1 -311 54 -350 128 -19
36 -19 36 0 72 11 21 33 43 50 50 44 19 134 17 198 -5z m-2132 -84 c-8 -8 -11
-5 -11 10 0 12 -4 25 -10 28 -5 3 -10 11 -10 17 0 6 10 -1 21 -16 16 -20 19
-30 10 -39z m-2022 3 c-35 -18 -59 -50 -39 -50 20 0 9 -29 -39 -96 -91 -128
-156 -170 -261 -166 -36 1 -77 5 -92 10 l-28 7 61 93 c79 121 124 152 269 186
180 42 178 42 129 16z m326 -12 c-4 -13 -21 -47 -38 -76 -91 -152 -157 -190
-365 -210 l-82 -8 34 35 c19 20 56 74 83 121 41 72 55 88 93 107 43 22 178 50
248 52 30 1 33 -1 27 -21z m1128 -136 c70 -89 76 -102 53 -102 -22 0 -103 100
-130 161 -35 78 -42 114 -14 65 13 -21 53 -77 91 -124z m-918 80 c22 -12 33
-21 23 -22 -9 0 -36 -19 -60 -41 -45 -43 -42 -45 41 -14 24 9 65 15 90 13 44
-3 43 -3 -28 -15 -53 -8 -86 -20 -115 -41 -96 -69 -226 -122 -333 -136 l-42
-6 87 87 c64 65 97 108 126 164 l39 77 66 -23 c37 -12 85 -32 106 -43z m1001
-129 c-6 -6 -106 147 -106 161 0 5 25 -28 55 -74 31 -45 54 -85 51 -87z m-218
73 c29 -47 74 -113 102 -147 28 -34 48 -64 46 -67 -10 -9 -66 40 -101 87 -30
42 -105 188 -105 205 0 14 10 1 58 -78z m-2950 17 c-28 -46 -85 -149 -156
-282 -30 -55 -69 -118 -88 -140 -73 -85 -224 -121 -322 -77 -44 20 -51 30 -27
39 7 3 57 59 109 125 52 65 118 140 148 167 49 45 317 202 346 204 9 1 6 -11
-10 -36z m-148 22 c0 -8 -78 -45 -174 -82 -93 -37 -518 -174 -523 -170 -8 8
71 105 101 126 69 45 222 87 456 124 38 6 140 8 140 2z m6438 -127 c-3 -76
-10 -113 -24 -139 -21 -39 -110 -125 -116 -111 -4 11 -92 78 -122 93 -11 6 7
-17 40 -52 70 -72 98 -120 89 -150 -10 -32 -83 -79 -122 -79 -64 0 -141 55
-178 129 -16 32 -16 36 5 92 13 33 27 62 31 65 5 3 9 10 9 16 0 6 -19 -14 -42
-45 -24 -31 -45 -56 -48 -56 -3 0 -38 38 -79 85 -40 46 -92 99 -115 117 l-41
32 46 -55 c50 -59 184 -259 178 -265 -9 -9 -233 76 -279 105 -93 60 -100 99
-40 229 l32 69 72 -34 c119 -56 239 -87 336 -87 73 -1 96 4 165 31 44 18 105
50 135 71 30 22 59 39 64 40 5 1 7 -45 4 -101z m-3885 51 c33 -16 117 -73 117
-79 0 -3 -40 -5 -89 -5 -86 0 -90 -1 -128 -33 -63 -54 -124 -91 -162 -98 -31
-6 -137 9 -184 25 -41 15 177 145 305 182 74 21 111 23 141 8z m-2868 -149
c-22 -22 -55 -45 -75 -50 -67 -18 -195 -40 -233 -40 -74 0 -32 23 119 65 82
23 160 47 174 53 49 21 54 12 15 -28z m2960 -2 c51 -11 194 -77 237 -110 l23
-18 -45 0 c-25 0 -72 -4 -105 -9 -33 -5 -87 -12 -120 -15 l-60 -5 55 28 c30
16 71 32 90 36 35 8 35 8 10 17 -45 18 -180 13 -283 -11 -54 -13 -100 -21
-102 -19 -2 2 23 26 55 53 87 75 115 81 245 53z m1822 -198 c4 -14 8 -56 8
-95 0 -61 -2 -70 -19 -73 -11 -2 -26 -10 -34 -18 -16 -17 -28 -18 -37 -4 -12
19 -22 10 -17 -15 2 -15 0 -25 -8 -25 -7 0 -9 -8 -5 -19 7 -23 -5 -26 -106
-30 -75 -3 -76 -2 -103 30 -35 41 -68 107 -61 119 3 6 12 10 20 10 16 0 59 53
110 139 l38 63 47 -5 c28 -3 56 -1 71 7 22 11 27 9 56 -23 18 -20 36 -47 40
-61z m286 38 c24 -60 96 -176 120 -193 12 -8 19 -16 16 -18 -57 -44 -159 -96
-199 -102 -57 -8 -70 -2 -70 30 0 12 -7 25 -15 29 -8 3 -15 14 -15 25 0 14 -5
19 -14 15 -8 -3 -24 -1 -35 6 -17 8 -21 20 -21 58 1 74 16 131 41 158 19 21
29 24 64 19 22 -3 54 -1 70 4 17 5 33 10 36 10 3 1 13 -18 22 -41z m959 -87
c87 -46 209 -86 296 -96 52 -6 62 -10 62 -26 0 -11 9 -27 20 -36 25 -22 25
-31 -2 -60 -28 -30 -42 -29 -67 5 l-22 27 16 -39 c11 -28 12 -43 5 -50 -14
-14 -29 10 -31 49 0 17 -4 39 -9 50 -6 13 -8 -4 -8 -53 0 -56 -4 -78 -17 -92
-16 -18 -257 -180 -267 -180 -14 0 7 53 29 75 29 28 24 33 -11 10 -22 -15 -24
-14 -34 12 -23 59 -23 72 -2 115 21 42 21 42 1 18 -11 -14 -21 -29 -21 -35 -1
-20 -18 21 -24 60 -8 45 5 62 74 104 19 11 30 21 25 21 -9 0 -79 -25 -127 -44
-13 -6 -18 2 -28 46 -6 29 -14 94 -17 143 l-6 90 45 -37 c26 -21 79 -55 120
-77z m-1853 2 c16 -35 5 -63 -29 -69 -39 -8 -53 -44 -58 -156 -4 -97 1 -151
17 -176 11 -19 126 63 189 134 l48 56 28 -42 c22 -34 25 -44 14 -51 -7 -5 -58
-36 -113 -70 -55 -33 -113 -71 -129 -84 l-30 -24 26 -38 c92 -139 267 -215
458 -199 74 6 77 5 88 -18 10 -22 8 -24 -20 -30 -56 -11 -212 -6 -276 9 -124
29 -237 105 -300 201 l-29 43 -23 -24 c-35 -38 -36 -22 -1 39 29 52 30 57 17
88 -27 64 -37 149 -26 231 11 90 27 129 74 181 37 40 56 40 75 -1z m1116 -44
c-20 -39 -29 -49 -36 -38 -16 25 -10 44 23 71 18 14 34 25 36 23 2 -2 -9 -27
-23 -56z m125 -105 c0 -8 30 -44 66 -81 l67 -66 -6 -66 c-3 -36 -8 -73 -12
-82 -3 -8 -30 -23 -59 -32 -29 -10 -61 -26 -71 -37 -10 -11 -23 -20 -30 -20
-22 0 -54 45 -96 139 l-43 94 24 16 c47 30 118 102 130 131 12 30 30 32 30 4z
m-565 -20 c18 -7 45 -55 45 -79 0 -24 -55 -75 -81 -75 -13 0 -36 12 -51 27
-68 66 -3 161 87 127z m-1513 -70 c59 -19 118 -81 118 -123 0 -90 -81 -157
-242 -201 -88 -24 -325 -65 -491 -84 -155 -19 -314 -30 -306 -22 4 4 318 66
335 66 0 0 13 32 28 70 50 127 157 243 263 285 92 37 201 40 295 9z m1838 -46
c0 -26 14 -77 35 -128 19 -46 35 -87 35 -90 0 -4 -22 -19 -49 -33 -26 -15 -61
-45 -76 -67 -15 -22 -32 -40 -38 -40 -8 0 -156 81 -176 97 -6 4 27 205 38 236
8 21 17 27 43 28 18 0 60 9 93 19 92 27 95 27 95 -22z m723 -65 l40 -92 -36
-34 c-20 -18 -45 -54 -56 -79 -14 -34 -26 -47 -48 -52 -15 -4 -36 -9 -45 -12
-12 -4 -23 6 -37 34 -22 43 -93 112 -116 112 -18 0 -18 2 -4 93 19 121 27 127
169 124 l94 -2 39 -92z m-1204 51 c16 -45 63 -74 119 -74 38 0 42 -2 42 -24 0
-13 -11 -48 -25 -78 -14 -29 -25 -60 -25 -70 0 -9 -22 -35 -49 -57 l-49 -41
-17 26 c-15 24 -22 26 -67 22 -50 -5 -50 -5 -65 31 -8 20 -32 59 -53 87 l-38
51 30 59 c38 75 48 85 95 94 78 15 88 13 102 -26z m-261 -76 c-17 -25 -63 -51
-80 -46 -11 4 69 68 85 68 5 0 3 -10 -5 -22z m-674 -115 c-2 -21 -5 -63 -8
-95 -6 -74 -24 -99 -118 -165 -43 -30 -82 -62 -87 -70 -13 -25 -21 -2 -28 84
-10 137 41 217 164 259 38 13 71 24 75 24 3 0 4 -17 2 -37z m1851 -64 c39 -23
77 -90 73 -127 -2 -22 -15 -33 -74 -64 -39 -20 -91 -43 -117 -50 -44 -11 -48
-11 -72 12 -76 71 -42 209 60 245 46 15 87 10 130 -16z m-301 -20 c21 -10 23
-15 15 -43 -15 -53 -10 -138 11 -185 11 -24 20 -45 20 -46 0 -4 -133 -55 -185
-71 -31 -9 -46 -9 -54 -1 -26 26 -5 207 31 265 11 18 43 46 72 62 58 34 57 34
90 19z m-364 -60 c32 -17 71 -42 89 -57 l31 -27 -16 -70 c-12 -55 -13 -79 -4
-114 6 -24 10 -45 8 -46 -5 -5 -165 -45 -180 -45 -9 0 -19 22 -27 62 -14 70
-47 140 -87 188 -24 28 -25 33 -12 41 9 5 40 29 69 54 30 24 58 45 63 45 4 0
34 -14 66 -31z m-1900 -187 c313 -97 682 -140 1110 -128 245 7 323 13 502 43
59 9 110 15 113 12 8 -8 26 -112 20 -117 -8 -9 -182 -41 -315 -58 -179 -24
-602 -24 -765 -1 -287 42 -722 179 -875 276 l-35 22 55 -4 c30 -2 116 -22 190
-45z"/>
<path d="M6481 6534 c-24 -31 -54 -117 -48 -141 3 -14 16 -5 61 42 56 59 74
94 61 114 -12 20 -53 12 -74 -15z"/>
<path d="M4210 5696 c0 -3 28 -20 62 -37 34 -17 96 -52 137 -78 107 -67 109
-67 86 -41 -35 41 -134 108 -188 128 -74 28 -97 34 -97 28z"/>
<path d="M2183 3850 c0 -25 2 -35 4 -22 2 12 2 32 0 45 -2 12 -4 2 -4 -23z"/>
<path d="M4291 2686 c10 -9 69 -36 69 -32 0 6 -55 36 -66 36 -4 0 -5 -2 -3 -4z"/>
<path d="M7125 2661 c-22 -11 -35 -19 -30 -19 14 -1 93 36 80 37 -5 0 -28 -8
-50 -18z"/>
<path d="M2475 1951 c-79 -36 -125 -76 -125 -107 0 -13 4 -24 9 -24 5 0 33 22
63 48 29 27 73 63 97 80 54 39 36 40 -44 3z"/>
<path d="M2718 1963 c7 -3 16 -2 19 1 4 3 -2 6 -13 5 -11 0 -14 -3 -6 -6z"/>
<path d="M4099 1006 c-113 -32 -236 -135 -285 -241 -27 -57 -30 -75 -11 -75
30 0 239 41 324 65 200 53 281 129 218 203 -46 55 -149 74 -246 48z"/>
</g>
</svg>
